<?xml version="1.0" encoding="utf-8"?>
<!-- Generator: Adobe Illustrator 19.1.0, SVG Export Plug-In . SVG Version: 6.00 Build 0)  -->
<svg version="1.1" id="Layer_1" xmlns="http://www.w3.org/2000/svg" xmlns:xlink="http://www.w3.org/1999/xlink" x="0px" y="0px"
	 viewBox="0 0 1000 1000" style="enable-background:new 0 0 1000 1000;" xml:space="preserve">
<style type="text/css">
	.st0{fill:#C6CEE1;}
	.st1{fill:#E5AF78;}
	.st2{fill:#EFF2F9;}
	.st3{fill:#D19A6E;}
	.st4{fill:#EEBF85;}
	.st5{fill:#E3E8F5;}
	.st6{fill:#122F45;}
	.st7{fill:#785651;}
	.st8{fill:#694B4B;}
	.st9{fill:#5A4247;}
	.st10{fill:#B5E0F7;}
	.st11{fill:#A0D0ED;}
</style>
<g id="layer1" inkscape:label="Layer 1" inkscape:groupmode="layer">
	<g id="g1148" transform="matrix(0.41258553,0,0,0.41258553,-0.333477,-0.07949568)">
		<g id="g977">
			<path id="path973" inkscape:connector-curvature="0" class="st0" d="M2011.8,1246.9c-19.8,0-35.9-16.1-35.9-35.9
				c0-415.3-337.9-753.2-753.2-753.2c-268.1,0-518.1,144.3-652.4,376.6c-9.9,17.2-31.9,23-49,13.1c-17.2-9.9-23-31.9-13.1-49
				c147.2-254.4,421-412.4,714.5-412.4c454.9,0,824.9,370.1,824.9,824.9C2047.7,1230.8,2031.6,1246.9,2011.8,1246.9z"/>
			<path id="path975" inkscape:connector-curvature="0" class="st0" d="M1222.8,2036c-454.9,0-824.9-370.1-824.9-824.9
				c0-19.8,16.1-35.9,35.9-35.9s35.9,16.1,35.9,35.9c0,415.3,337.9,753.2,753.2,753.2c208.1,0,409-87.4,551-239.6
				c13.6-14.5,36.2-15.3,50.7-1.8c14.5,13.5,15.3,36.2,1.8,50.7C1670.6,1940.3,1450.7,2036,1222.8,2036L1222.8,2036z"/>
		</g>
		<polygon id="polygon979" class="st1" points="1868.3,2114.6 2004.9,1993.2 2004.9,1887 1731.8,1887 1731.8,1993.2 		"/>
		<path id="path981" inkscape:connector-curvature="0" class="st2" d="M2216.1,2042.9l-187.8-44.2c-2.8-0.7-5.4-1.8-7.9-3.2
			l-152.1,88.7l-146.1-93c-3.8,3.6-8.5,6.2-13.8,7.5l-187.8,44.2c-27.4,6.5-46.8,30.9-46.8,59.1v118.8c0,16.8,13.6,30.3,30.3,30.3
			h728.4c16.8,0,30.3-13.6,30.3-30.3V2102C2262.9,2073.8,2243.5,2049.3,2216.1,2042.9L2216.1,2042.9z"/>
		<path id="path983" inkscape:connector-curvature="0" class="st3" d="M1731.8,1887V1999c172,62,273.1-93.1,273.1-93.1V1887
			L1731.8,1887z"/>
		<path id="path985" inkscape:connector-curvature="0" class="st4" d="M1671.1,1538l13.2,290.9c1.2,27.2,14.6,52.4,36.3,68.7
			l62.7,47.1c15.8,11.8,34.9,18.2,54.6,18.2h60.7c19.7,0,38.9-6.4,54.6-18.2l62.7-47.1c21.8-16.3,35.1-41.5,36.3-68.7l13.2-290.9
			L1671.1,1538z"/>
		<path id="path987" inkscape:connector-curvature="0" class="st1" d="M1822.8,1598.7c60.7,0,151.7-15.2,173.3-60.7h-325.1
			l13.2,290.9c1.2,27.2,14.6,52.4,36.3,68.7l62.7,47.1c15.8,11.8,34.9,18.2,54.6,18.2h30.3c-30.3,0-91-60.7-91-136.6
			c0-37.1,0-136.6,0-182.1C1777.3,1629,1792.5,1598.7,1822.8,1598.7L1822.8,1598.7z"/>
		<g id="g993">
			<path id="path989" inkscape:connector-curvature="0" class="st5" d="M2151.5,2152.7l98.3-88.3c8.2,10.4,13.1,23.6,13.1,37.6
				v118.8c0,16.8-13.6,30.3-30.3,30.3h-106.2v-42C2126.3,2187.6,2135.5,2167.1,2151.5,2152.7L2151.5,2152.7z"/>
			<path id="path991" inkscape:connector-curvature="0" class="st5" d="M1585.2,2152.7l-98.3-88.3c-8.2,10.4-13.1,23.6-13.1,37.6
				v118.8c0,16.8,13.6,30.3,30.3,30.3h106.2v-42C1610.4,2187.6,1601.2,2167.1,1585.2,2152.7L1585.2,2152.7z"/>
		</g>
		<polygon id="polygon995" class="st6" points="1896.8,2114.6 1906.3,2251.2 1830.4,2251.2 1839.9,2114.6 		"/>
		<path id="path997" inkscape:connector-curvature="0" class="st6" d="M1906.3,2084.2h-75.9v11c0,19,15.4,34.5,34.5,34.5h6.9
			c19,0,34.5-15.4,34.5-34.5V2084.2z"/>
		<g id="g1003">
			<path id="path999" inkscape:connector-curvature="0" class="st5" d="M1729.6,1959.4l138.7,124.8c0,0-38.8,19.6-86.8,59.1
				c-9.9,8.2-24.8,4.9-30.2-6.8l-65.2-143.4l20.6-30.9C1712,1954.6,1722.8,1953.2,1729.6,1959.4z"/>
			<path id="path1001" inkscape:connector-curvature="0" class="st5" d="M2007,1959.4l-138.7,124.8c0,0,38.8,19.6,86.8,59.1
				c9.9,8.2,24.8,4.9,30.2-6.8l65.2-143.4l-20.6-30.9C2024.7,1954.6,2013.9,1953.2,2007,1959.4z"/>
		</g>
		<path id="path1005" inkscape:connector-curvature="0" class="st7" d="M1960.3,1437.4l14.2,100.5c64.9,13,74.3,114.9,75.6,144
			c0.2,5.3,1.9,10.4,4.8,14.8l24.8,38.4c0,0-8.5-63.5,30.3-106.2C2110.1,1629,2123.5,1376.7,1960.3,1437.4L1960.3,1437.4z"/>
		<path id="path1007" inkscape:connector-curvature="0" class="st4" d="M2095,1728.7l-17.1,68.5c-2,8.1-9.3,13.8-17.7,13.8l0,0
			c-9.2,0-17-6.9-18.1-16l-8.8-70.1c-2.3-18.8,12.3-35.3,31.2-35.3h0.1C2085,1689.7,2100,1708.9,2095,1728.7L2095,1728.7z"/>
		<path id="path1009" inkscape:connector-curvature="0" class="st8" d="M1685.6,1410.3l22.4,15.3c-101.5,74.9-82.5,203.4-82.5,203.4
			c30.3,30.3,30.3,106.2,30.3,106.2l30.3-30.3c0,0-11.7-87.7,45.5-121.4c53.1-31.3,99.6-15.2,147-15.2
			c127.1,0,162.6-47.9,156.5-106.2c-3.2-30.2-49.3-93-166.9-91C1820.9,1371.9,1731.8,1386.2,1685.6,1410.3L1685.6,1410.3z"/>
		<path id="path1011" inkscape:connector-curvature="0" class="st9" d="M1676.8,1555c0,0-16.1-63.5,31.3-129.5
			c-101.5,74.9-82.5,203.4-82.5,203.4c30.3,30.3,30.3,106.2,30.3,106.2l30.3-30.3c0,0-11.7-87.7,45.5-121.4
			c53.1-31.3,99.6-15.2,147-15.2c20.7,0,38.7-1.4,54.7-3.8C1835.6,1567.8,1777.9,1493.7,1676.8,1555L1676.8,1555z"/>
		<path id="path1013" inkscape:connector-curvature="0" class="st1" d="M1641.7,1728.7l17.1,68.5c2,8.1,9.3,13.8,17.7,13.8l0,0
			c9.2,0,17-6.9,18.1-16l8.8-70.1c2.3-18.8-12.3-35.3-31.2-35.3h-0.1C1651.7,1689.7,1636.7,1708.9,1641.7,1728.7L1641.7,1728.7z"/>
		<path id="path1015" inkscape:connector-curvature="0" class="st5" d="M2053.2,2220.8h-81.4c-15.2,0-27.6,12.4-27.6,27.6v2.8h136.6
			v-2.8C2080.8,2233.2,2068.4,2220.8,2053.2,2220.8z"/>
		<path id="path1017" inkscape:connector-curvature="0" class="st8" d="M505.4,170.9c-300.5,0-267.2,365.5-265.8,630.3
			c0.1,10,5.3,19,13.9,24.2c33.3,20.1,124.8,67,252,67s218.7-46.9,252-67c8.6-5.2,13.8-14.2,13.9-24.2
			C772.7,536.4,806,170.9,505.4,170.9z"/>
		<path id="path1019" inkscape:connector-curvature="0" class="st9" d="M486.1,171.7c-279.5,15.7-247.8,370.6-246.5,629.6
			c0.1,10,5.3,19,13.9,24.2c33.3,20.1,124.8,67,252,67l75.9-531.7"/>
		<path id="path1021" inkscape:connector-curvature="0" class="st8" d="M505.4,170.9c-170.9,0-182.8,206.5-182.8,206.5
			c98.5-16.6,159,24.9,258.7-16.6l-76,531.7c127.2,0,218.7-46.9,252-67c8.6-5.2,13.8-14.2,13.9-24.2
			C772.7,536.4,806,170.9,505.4,170.9z"/>
		<path id="path1023" inkscape:connector-curvature="0" class="st7" d="M771.3,801.3c1.2-227.6,25.7-529.3-158-609.7
			c-3.2,16.7-9,63.1,6.1,93.3c38,76,76,76,113.9,132.9c38,208.9-72.6,430.6-109.3,460.7l0,0c65-15.5,111.7-40,133.4-53.1
			C766,820.3,771.2,811.3,771.3,801.3z"/>
		<path id="path1025" inkscape:connector-curvature="0" class="st1" d="M793.2,858.9l-169.4-70.6c-14.2-5.9-23.4-19.7-23.4-35.1
			v-45.9H410.5v45.9c0,15.3-9.2,29.2-23.4,35.1l-169.4,70.6c-21.2,8.8-35.1,29.6-35.1,52.6v76c0,21,17,38,38,38h569.6
			c21,0,38-17,38-38v-76C828.2,888.4,814.4,867.7,793.2,858.9z"/>
		<path id="path1027" inkscape:connector-curvature="0" class="st10" d="M793.2,858.9l-163.8-68.3l-123.9,53.5l-123.9-53.5
			l-163.8,68.3c-21.2,8.8-35.1,29.6-35.1,52.6v76c0,21,17,38,38,38h569.6c21,0,38-17,38-38v-76C828.2,888.4,814.4,867.7,793.2,858.9
			z"/>
		<path id="path1029" inkscape:connector-curvature="0" class="st3" d="M600.4,707.3H410.5v45.9c0,15.3-9.2,29.2-23.4,35.1l-26.5,11
			C563.2,850.9,600.4,707.3,600.4,707.3L600.4,707.3z"/>
		<g id="g1041">
			<path id="path1031" inkscape:connector-curvature="0" class="st11" d="M275.2,932.3L199,871.7c-10.2,10.4-16.3,24.6-16.3,39.7v76
				c0,21,17,38,38,38h76v-48.6C296.6,959.5,288.7,943.1,275.2,932.3z"/>
			<path id="path1033" inkscape:connector-curvature="0" class="st11" d="M828.2,987.4v-76c0-15.1-6-29.1-16.1-39.5l-76.5,60.4
				c-13.5,10.8-21.4,27.2-21.4,44.5v48.6h76C811.2,1025.4,828.2,1008.4,828.2,987.4z"/>
			<path id="path1035" inkscape:connector-curvature="0" class="st6" d="M506.5,987.4h-2.1c-9.9,0-17.9-8-17.9-17.9V844.1h38v125.3
				C524.4,979.4,516.4,987.4,506.5,987.4L506.5,987.4z"/>
			<path id="path1037" inkscape:connector-curvature="0" class="st6" d="M505.4,844.1l-108.7-81.5c-7-5.2-16.9-3.5-21.8,3.7
				l-21.5,32.2l66.6,93.3c5.1,7.1,15,8.5,21.9,3L505.4,844.1z"/>
			<path id="path1039" inkscape:connector-curvature="0" class="st6" d="M505.4,844.1l108.7-81.5c7-5.2,16.9-3.5,21.8,3.7l21.5,32.2
				l-66.6,93.3c-5.1,7.1-15,8.5-21.9,3L505.4,844.1z"/>
		</g>
		<path id="path1043" inkscape:connector-curvature="0" class="st4" d="M600.4,341.8c-94.9,94.9-281.3,19-281.3,170.9l11.8,111.9
			c2.3,25,16.8,47.3,38.8,59.5l108.1,60.1c17.2,9.6,38.1,9.6,55.3,0l108.1-60.1c22-12.2,36.5-34.5,38.8-59.5l13.6-132.9
			c1-9.4,1.2-18.9,0.9-28.4C687.3,414.9,619.4,379.8,600.4,341.8z"/>
		<path id="path1045" inkscape:connector-curvature="0" class="st1" d="M319.1,512.7l11.8,111.9c2.3,25,16.8,47.3,38.8,59.5
			l108.1,60.1c11.9,6.6,25.6,8.4,38.7,5.8l0,0c0,0-54.5-16.5-86.9-104.3c-9.9-26.9-23.7-169.3-11.9-186.7
			c23.5-34.4,154.3-38,192.9-101.8c-1.9-2.4-3.7-4.7-5.3-7.1c-0.1-0.2-0.3-0.4-0.4-0.6c-1.7-2.5-3.2-5.1-4.5-7.6
			C505.4,436.7,319.1,360.8,319.1,512.7z"/>
		<path id="path1047" inkscape:connector-curvature="0" class="st11" d="M640.5,987.4h-42.2c-19.8,0-35.9,16.1-35.9,35.9v2.1h113.9
			v-2.1C676.3,1003.5,660.3,987.4,640.5,987.4z"/>
		<g id="g1053">
			<path id="path1049" inkscape:connector-curvature="0" class="st0" d="M577.2,1318.6c-9.2,0-18.4-3.5-25.4-10.5L433.7,1190
				l-118.1,118.1c-14,14-36.7,14-50.7,0c-14-14-14-36.7,0-50.7l143.5-143.5c14-14,36.7-14,50.7,0l143.5,143.5c14,14,14,36.7,0,50.7
				C595.5,1315.1,586.3,1318.6,577.2,1318.6z"/>
			<path id="path1051" inkscape:connector-curvature="0" class="st0" d="M2011.8,1318.6c-9.2,0-18.4-3.5-25.4-10.5L1843,1164.7
				c-14-14-14-36.7,0-50.7s36.7-14,50.7,0l118.1,118.1l118.1-118.1c14-14,36.7-14,50.7,0c14,14,14,36.7,0,50.7l-143.5,143.5
				C2030.2,1315.1,2021,1318.6,2011.8,1318.6z"/>
		</g>
		<g id="g1055">
		</g>
		<g id="g1057">
		</g>
		<g id="g1059">
		</g>
		<g id="g1061">
		</g>
		<g id="g1063">
		</g>
		<g id="g1065">
		</g>
		<g id="g1067">
		</g>
		<g id="g1069">
		</g>
		<g id="g1071">
		</g>
		<g id="g1073">
		</g>
		<g id="g1075">
		</g>
		<g id="g1077">
		</g>
		<g id="g1079">
		</g>
		<g id="g1081">
		</g>
		<g id="g1083">
		</g>
	</g>
	<g id="g455" transform="matrix(0.22831775,0,0,0.22831775,0.40635442,124.70603)">
		<path id="path391" inkscape:connector-curvature="0" class="st4" d="M2306.5,2664.4h-531.9v-35.9c0-59.4-48.2-107.6-107.6-107.6
			h-232.5c-79.8,0-157.2,26.6-220.2,75.6l-140.7,109.4c-25.2,19.6-56.2,30.2-88.1,30.2H770.3v753.2h128.9
			c53.3,0,106.6,4.4,159.2,13.2l57.1,9.5c52.6,8.8,105.9,13.2,159.3,13.2H1619c58.3,0,110.5-43.6,113.5-101.8
			c3.3-62.1-46.1-113.4-107.4-113.4h65.6c58.3,0,110.5-43.6,113.5-101.8c3.3-62.1-46.1-113.4-107.4-113.4h71.7
			c58.3,0,110.5-43.6,113.5-101.8c3.3-62.1-46.1-113.4-107.4-113.4h538c61.3,0,110.7-51.3,107.4-113.4
			C2417,2708,2364.8,2664.4,2306.5,2664.4z"/>
		<rect id="rect393" x="770.3" y="2736.1" class="st1" width="71.7" height="753.2"/>
		<path id="path395" inkscape:connector-curvature="0" class="st6" d="M734.5,3525.1H375.8c-19.8,0-35.9-16.1-35.9-35.9v-753.2
			c0-19.8,16.1-35.9,35.9-35.9h358.7c19.8,0,35.9,16.1,35.9,35.9v753.2C770.3,3509.1,754.3,3525.1,734.5,3525.1z"/>
		<circle id="circle397" class="st2" cx="555.2" cy="3345.8" r="71.7"/>
		<g id="g399">
		</g>
		<g id="g401">
		</g>
		<g id="g403">
		</g>
		<g id="g405">
		</g>
		<g id="g407">
		</g>
		<g id="g409">
		</g>
		<g id="g411">
		</g>
		<g id="g413">
		</g>
		<g id="g415">
		</g>
		<g id="g417">
		</g>
		<g id="g419">
		</g>
		<g id="g421">
		</g>
		<g id="g423">
		</g>
		<g id="g425">
		</g>
		<g id="g427">
		</g>
	</g>
</g>
</svg>
