<?xml version="1.0" encoding="utf-8"?>
<!-- Generator: Adobe Illustrator 19.1.0, SVG Export Plug-In . SVG Version: 6.00 Build 0)  -->
<svg version="1.1"
	 id="svg8" xmlns:dc="http://purl.org/dc/elements/1.1/" xmlns:cc="http://creativecommons.org/ns#" xmlns:rdf="http://www.w3.org/1999/02/22-rdf-syntax-ns#" xmlns:svg="http://www.w3.org/2000/svg" xmlns:sodipodi="http://sodipodi.sourceforge.net/DTD/sodipodi-0.dtd" xmlns:inkscape="http://www.inkscape.org/namespaces/inkscape" sodipodi:docname="clickToRead.svg" inkscape:version="0.92.1 r15371"
	 xmlns="http://www.w3.org/2000/svg" xmlns:xlink="http://www.w3.org/1999/xlink" x="0px" y="0px" viewBox="-403.4 1.1 1000 1000"
	 style="enable-background:new -403.4 1.1 1000 1000;" xml:space="preserve">
<style type="text/css">
	.st0{fill:#EFF2FA;}
	.st1{fill:#C3E678;}
	.st2{fill:#959CB3;}
	.st3{fill:#C7CFE2;}
	.st4{fill:#D29B6E;}
	.st5{fill:#B4E1FA;}
	.st6{fill:#5B5D6E;}
	.st7{fill:#A0D2F0;}
	.st8{fill:#694B4B;}
	.st9{fill:#F0C087;}
	.st10{fill:#FFD782;}
	.st11{fill:#D7DEED;}
</style>
<sodipodi:namedview  showgrid="false" inkscape:cy="678.94006" inkscape:cx="305.13774" inkscape:zoom="0.79570312" borderopacity="1.0" bordercolor="#666666" pagecolor="#ffffff" id="base" inkscape:window-maximized="1" inkscape:pageshadow="2" inkscape:pageopacity="0.0" inkscape:window-y="-8" inkscape:window-x="-8" inkscape:document-units="mm" inkscape:window-height="715" inkscape:window-width="1366" inkscape:current-layer="layer1">
	<inkscape:grid  type="xygrid" id="grid3243"></inkscape:grid>
</sodipodi:namedview>
<g id="layer1" inkscape:label="Layer 1" inkscape:groupmode="layer">
	<g id="g1055" transform="matrix(0.31548469,0,0,0.31548469,-59.9718,11.353174)">
	</g>
	<g id="g1057" transform="matrix(0.31548469,0,0,0.31548469,-59.9718,11.353174)">
	</g>
	<g id="g1059" transform="matrix(0.31548469,0,0,0.31548469,-59.9718,11.353174)">
	</g>
	<g id="g1061" transform="matrix(0.31548469,0,0,0.31548469,-59.9718,11.353174)">
	</g>
	<g id="g1063" transform="matrix(0.31548469,0,0,0.31548469,-59.9718,11.353174)">
	</g>
	<g id="g1065" transform="matrix(0.31548469,0,0,0.31548469,-59.9718,11.353174)">
	</g>
	<g id="g1067" transform="matrix(0.31548469,0,0,0.31548469,-59.9718,11.353174)">
	</g>
	<g id="g1069" transform="matrix(0.31548469,0,0,0.31548469,-59.9718,11.353174)">
	</g>
	<g id="g1071" transform="matrix(0.31548469,0,0,0.31548469,-59.9718,11.353174)">
	</g>
	<g id="g1073" transform="matrix(0.31548469,0,0,0.31548469,-59.9718,11.353174)">
	</g>
	<g id="g1075" transform="matrix(0.31548469,0,0,0.31548469,-59.9718,11.353174)">
	</g>
	<g id="g1077" transform="matrix(0.31548469,0,0,0.31548469,-59.9718,11.353174)">
	</g>
	<g id="g1079" transform="matrix(0.31548469,0,0,0.31548469,-59.9718,11.353174)">
	</g>
	<g id="g1081" transform="matrix(0.31548469,0,0,0.31548469,-59.9718,11.353174)">
	</g>
	<g id="g1083" transform="matrix(0.31548469,0,0,0.31548469,-59.9718,11.353174)">
	</g>
	<g id="g2104" transform="matrix(0.26458333,0,0,0.26458333,1.644215,40.701396)">
	</g>
	<g id="g2106" transform="matrix(0.26458333,0,0,0.26458333,1.644215,40.701396)">
	</g>
	<g id="g2108" transform="matrix(0.26458333,0,0,0.26458333,1.644215,40.701396)">
	</g>
	<g id="g2110" transform="matrix(0.26458333,0,0,0.26458333,1.644215,40.701396)">
	</g>
	<g id="g2112" transform="matrix(0.26458333,0,0,0.26458333,1.644215,40.701396)">
	</g>
	<g id="g2114" transform="matrix(0.26458333,0,0,0.26458333,1.644215,40.701396)">
	</g>
	<g id="g2116" transform="matrix(0.26458333,0,0,0.26458333,1.644215,40.701396)">
	</g>
	<g id="g2118" transform="matrix(0.26458333,0,0,0.26458333,1.644215,40.701396)">
	</g>
	<g id="g2120" transform="matrix(0.26458333,0,0,0.26458333,1.644215,40.701396)">
	</g>
	<g id="g2122" transform="matrix(0.26458333,0,0,0.26458333,1.644215,40.701396)">
	</g>
	<g id="g2124" transform="matrix(0.26458333,0,0,0.26458333,1.644215,40.701396)">
	</g>
	<g id="g2126" transform="matrix(0.26458333,0,0,0.26458333,1.644215,40.701396)">
	</g>
	<g id="g2128" transform="matrix(0.26458333,0,0,0.26458333,1.644215,40.701396)">
	</g>
	<g id="g2130" transform="matrix(0.26458333,0,0,0.26458333,1.644215,40.701396)">
	</g>
	<g id="g2132" transform="matrix(0.26458333,0,0,0.26458333,1.644215,40.701396)">
	</g>
	<path id="path2402" inkscape:connector-curvature="0" class="st0" d="M587.3,797.8H353.9c-5.2,0-9.3-4.2-9.3-9.3V639
		c0-5.2,4.2-9.3,9.3-9.3h233.4c5.2,0,9.3,4.2,9.3,9.3v149.4C596.6,793.6,592.5,797.8,587.3,797.8z"/>
	<path id="path2404" inkscape:connector-curvature="0" class="st1" d="M447.2,783.7h-84c-2.6,0-4.7-2.1-4.7-4.7V657.7
		c0-2.6,2.1-4.7,4.7-4.7h84c2.6,0,4.7,2.1,4.7,4.7v121.4C451.9,781.7,449.8,783.7,447.2,783.7L447.2,783.7z"/>
	<g id="g2410" transform="matrix(0.10344923,0,0,0.10344923,149.88098,66.282862)">
		<path id="path2406" inkscape:connector-curvature="0" class="st1" d="M3867.3,5852.2h-722.1c-24.9,0-45.1-20.2-45.1-45.1l0,0
			c0-24.9,20.2-45.1,45.1-45.1h722.1c24.9,0,45.1,20.2,45.1,45.1l0,0C3912.4,5832,3892.2,5852.2,3867.3,5852.2z"/>
		<path id="path2408" inkscape:connector-curvature="0" class="st1" d="M4093,6032.7h-947.8c-24.9,0-45.1-20.2-45.1-45.1l0,0
			c0-24.9,20.2-45.1,45.1-45.1H4093c24.9,0,45.1,20.2,45.1,45.1l0,0C4138.1,6012.5,4117.9,6032.7,4093,6032.7z"/>
	</g>
	<path id="path2412" inkscape:connector-curvature="0" class="st2" d="M484.6,732.4h-9.3c-2.6,0-4.7-2.1-4.7-4.7l0,0
		c0-2.6,2.1-4.7,4.7-4.7h9.3c2.6,0,4.7,2.1,4.7,4.7l0,0C489.3,730.3,487.2,732.4,484.6,732.4z"/>
	<path id="path2414" inkscape:connector-curvature="0" class="st3" d="M559.3,732.4h-56c-2.6,0-4.7-2.1-4.7-4.7l0,0
		c0-2.6,2.1-4.7,4.7-4.7h56c2.6,0,4.7,2.1,4.7,4.7l0,0C564,730.3,561.9,732.4,559.3,732.4z"/>
	<path id="path2416" inkscape:connector-curvature="0" class="st2" d="M484.6,751.1h-9.3c-2.6,0-4.7-2.1-4.7-4.7l0,0
		c0-2.6,2.1-4.7,4.7-4.7h9.3c2.6,0,4.7,2.1,4.7,4.7l0,0C489.3,749,487.2,751.1,484.6,751.1z"/>
	<path id="path2418" inkscape:connector-curvature="0" class="st3" d="M573.3,751.1h-70c-2.6,0-4.7-2.1-4.7-4.7l0,0
		c0-2.6,2.1-4.7,4.7-4.7h70c2.6,0,4.7,2.1,4.7,4.7l0,0C578,749,575.9,751.1,573.3,751.1z"/>
	<path id="path2420" inkscape:connector-curvature="0" class="st2" d="M484.6,769.7h-9.3c-2.6,0-4.7-2.1-4.7-4.7l0,0
		c0-2.6,2.1-4.7,4.7-4.7h9.3c2.6,0,4.7,2.1,4.7,4.7l0,0C489.3,767.6,487.2,769.7,484.6,769.7z"/>
	<g id="g2424" transform="matrix(0.10344923,0,0,0.10344923,149.88098,66.282862)">
		<path id="path2422" inkscape:connector-curvature="0" class="st3" d="M3777,6800H3416c-24.9,0-45.1-20.2-45.1-45.1l0,0
			c0-24.9,20.2-45.1,45.1-45.1H3777c24.9,0,45.1,20.2,45.1,45.1l0,0C3822.2,6779.8,3801.9,6800,3777,6800z"/>
	</g>
	<g id="g2261" transform="matrix(0.36423537,0,0,0.36423537,-202.22507,38.718959)">
	</g>
	<g id="g2263" transform="matrix(0.36423537,0,0,0.36423537,-202.22507,38.718959)">
	</g>
	<g id="g2265" transform="matrix(0.36423537,0,0,0.36423537,-202.22507,38.718959)">
	</g>
	<g id="g2267" transform="matrix(0.36423537,0,0,0.36423537,-202.22507,38.718959)">
	</g>
	<g id="g2269" transform="matrix(0.36423537,0,0,0.36423537,-202.22507,38.718959)">
	</g>
	<g id="g2271" transform="matrix(0.36423537,0,0,0.36423537,-202.22507,38.718959)">
	</g>
	<g id="g2273" transform="matrix(0.36423537,0,0,0.36423537,-202.22507,38.718959)">
	</g>
	<g id="g2275" transform="matrix(0.36423537,0,0,0.36423537,-202.22507,38.718959)">
	</g>
	<g id="g2277" transform="matrix(0.36423537,0,0,0.36423537,-202.22507,38.718959)">
	</g>
	<g id="g2279" transform="matrix(0.36423537,0,0,0.36423537,-202.22507,38.718959)">
	</g>
	<g id="g2281" transform="matrix(0.36423537,0,0,0.36423537,-202.22507,38.718959)">
	</g>
	<g id="g2283" transform="matrix(0.36423537,0,0,0.36423537,-202.22507,38.718959)">
	</g>
	<g id="g2285" transform="matrix(0.36423537,0,0,0.36423537,-202.22507,38.718959)">
	</g>
	<g id="g2287" transform="matrix(0.36423537,0,0,0.36423537,-202.22507,38.718959)">
	</g>
	<g id="g2289" transform="matrix(0.36423537,0,0,0.36423537,-202.22507,38.718959)">
	</g>
	<polygon id="polygon2426" class="st4" points="421.1,759.4 421.1,745.7 390,745.7 390,759.4 405.5,775.1 	"/>
	<path id="path2428" inkscape:connector-curvature="0" class="st5" d="M444.7,761.9l-21.2-4.7c-0.3-0.1-0.6-0.2-0.9-0.3l-17.2,9.5
		l-16.5-10c-0.4,0.4-1,0.7-1.6,0.8l-21.2,4.7c-3.1,0.7-5.3,3.3-5.3,6.4v9.7c0,3.5,2.8,6.4,6.4,6.4h76.3c3.5,0,6.4-2.8,6.4-6.4v-9.7
		C450,765.2,447.8,762.6,444.7,761.9L444.7,761.9z"/>
	<polygon id="polygon2430" class="st6" points="409.8,784.3 401.3,784.3 402.3,766.3 408.7,766.3 	"/>
	<g id="g2436" transform="matrix(0.14082999,0,0,0.14082999,140.0207,89.259874)">
		<path id="path2432" inkscape:connector-curvature="0" class="st7" d="M2190.8,4792.4l-78.7,67.4c-12.8,11-20.2,26.6-20.2,43.1
			v32.1h64.2c24.9,0,45.1-20.2,45.1-45.1v-68.8C2201.2,4810.4,2197.4,4800.4,2190.8,4792.4z"/>
		<path id="path2434" inkscape:connector-curvature="0" class="st7" d="M1658.6,4859.9l-78.7-67.4c-6.6,8-10.5,18-10.5,28.7v68.8
			c0,24.9,20.2,45.1,45.1,45.1h64.2v-32.1C1678.7,4886.5,1671.4,4870.8,1658.6,4859.9z"/>
	</g>
	<g id="g2442" transform="matrix(0.14082999,0,0,0.14082999,140.0207,89.259874)">
		<path id="path2438" inkscape:connector-curvature="0" class="st7" d="M1774.2,4712.3l111.1,95.3c0,0-31.1,15-69.5,45.1
			c-7.9,6.2-19.9,3.7-24.1-5.2l-52.2-109.4l16.5-23.6C1760.1,4708.6,1768.7,4707.6,1774.2,4712.3z"/>
		<path id="path2440" inkscape:connector-curvature="0" class="st7" d="M1996.4,4712.3l-111.1,95.3c0,0,31.1,15,69.5,45.1
			c7.9,6.2,19.9,3.7,24.1-5.2l52.2-109.4l-16.5-23.6C2010.5,4708.6,2001.9,4707.6,1996.4,4712.3z"/>
	</g>
	<path id="path2444" inkscape:connector-curvature="0" class="st8" d="M411.9,688.9h-12.7c-10.5,0-19.1,8.5-19.1,19.1v13.8
		c0,3.4,1.3,6.6,3.7,9l2.6,2.6h38.1l2.6-2.6c2.4-2.4,3.7-5.6,3.7-9V708C431,697.5,422.4,688.9,411.9,688.9L411.9,688.9z"/>
	<path id="path2446" inkscape:connector-curvature="0" class="st9" d="M385.8,721.7l0.8,18.3c0.1,2.9,1.5,5.5,3.7,7.2l6.5,4.9
		c1.6,1.2,3.6,1.9,5.6,1.9h6.2c2,0,4-0.7,5.6-1.9l6.5-4.9c2.2-1.7,3.6-4.4,3.7-7.2l0.8-18.3c0.3-6.7-4.9-12.3-11.5-12.3h-16.6
		C390.7,709.4,385.5,715,385.8,721.7L385.8,721.7z"/>
	<g id="g2608" transform="matrix(0.21525646,0,0,0.21525646,48.054768,48.802187)">
		<path id="path2448" inkscape:connector-curvature="0" class="st0" d="M1081.7,4423.8h-1715c-49.9,0-90.3-40.4-90.3-90.3V1896.4
			c0-49.9,40.4-90.3,90.3-90.3h1715c49.9,0,90.3,40.4,90.3,90.3v2437.2C1172,4383.4,1131.5,4423.8,1081.7,4423.8z"/>
		<path id="path2450" inkscape:connector-curvature="0" class="st1" d="M43.6,2799H-498c-24.9,0-45.1-20.2-45.1-45.1v-722.1
			c0-24.9,20.2-45.1,45.1-45.1H43.6c24.9,0,45.1,20.2,45.1,45.1v722.1C88.8,2778.8,68.6,2799,43.6,2799z"/>
		<polygon id="polygon2452" class="st4" points="-227.2,2733.7 -116.7,2622.5 -116.7,2525.2 -337.6,2525.2 -337.6,2622.5 		"/>
		<path id="path2454" inkscape:connector-curvature="0" class="st5" d="M51.3,2640.1l-150.4-33.7c-2.3-0.5-4.4-1.4-6.3-2.4
			l-121.8,67.7l-117-71c-3,2.7-6.8,4.7-11.1,5.7l-150.4,33.7c-22,4.9-37.5,23.6-37.5,45.1v68.8c0,24.9,20.2,45.1,45.1,45.1H43.6
			c24.9,0,45.1-20.2,45.1-45.1v-68.8C88.8,2663.6,73.2,2645,51.3,2640.1z"/>
		<g id="g2460">
			<path id="path2456" inkscape:connector-curvature="0" class="st7" d="M78.3,2656.4l-78.7,67.4c-12.8,11-20.2,26.6-20.2,43.1v32.1
				h64.2c24.9,0,45.1-20.2,45.1-45.1v-68.8C88.8,2674.4,84.9,2664.4,78.3,2656.4z"/>
			<path id="path2458" inkscape:connector-curvature="0" class="st7" d="M-453.9,2723.9l-78.7-67.4c-6.6,8-10.5,18-10.5,28.7v68.8
				c0,24.9,20.2,45.1,45.1,45.1h64.2v-32.1C-433.7,2750.5-441.1,2734.8-453.9,2723.9z"/>
		</g>
		<polygon id="polygon2462" class="st6" points="-249.9,2671.2 -204.4,2671.2 -196.8,2799 -257.5,2799 		"/>
		<g id="g2468">
			<path id="path2464" inkscape:connector-curvature="0" class="st7" d="M-338.2,2576.3l111.1,95.3c0,0-31.1,15-69.5,45.1
				c-7.9,6.2-19.9,3.7-24.1-5.2l-52.2-109.4l16.5-23.6C-352.4,2572.7-343.7,2571.6-338.2,2576.3z"/>
			<path id="path2466" inkscape:connector-curvature="0" class="st7" d="M-116.1,2576.3l-111.1,95.3c0,0,31.1,15,69.5,45.1
				c7.9,6.2,19.9,3.7,24.1-5.2l52.2-109.4l-16.5-23.6C-102,2572.7-110.6,2571.6-116.1,2576.3z"/>
		</g>
		<path id="path2470" inkscape:connector-curvature="0" class="st8" d="M-182,2122h-90.3c-74.8,0-135.4,60.6-135.4,135.4v98
			c0,23.9,9.5,46.9,26.4,63.8l18.7,18.7h270.8l18.7-18.7c16.9-16.9,26.4-39.9,26.4-63.8v-98C-46.6,2182.7-107.2,2122-182,2122z"/>
		<path id="path2472" inkscape:connector-curvature="0" class="st9" d="M-367.4,2354.5l5.8,130.1c0.9,20.3,10.6,39.1,26.5,51.3
			l45.8,35.1c11.5,8.8,25.5,13.6,39.9,13.6h44.3c14.4,0,28.4-4.8,39.9-13.6l45.8-35.1c15.9-12.2,25.6-31,26.5-51.3l5.8-130.1
			c2.1-47.5-35-87.1-81.4-87.1h-117.5C-332.4,2267.4-369.5,2307.1-367.4,2354.5z"/>
		<path id="path2474" inkscape:connector-curvature="0" class="st10" d="M946.3,2076.9H314.4c-24.9,0-45.1-20.2-45.1-45.1l0,0
			c0-24.9,20.2-45.1,45.1-45.1h631.9c24.9,0,45.1,20.2,45.1,45.1l0,0C991.4,2056.7,971.2,2076.9,946.3,2076.9z"/>
		<g id="g2488">
			<path id="path2476" inkscape:connector-curvature="0" class="st11" d="M946.3,2438H314.4c-24.9,0-45.1-20.2-45.1-45.1l0,0
				c0-24.9,20.2-45.1,45.1-45.1h631.9c24.9,0,45.1,20.2,45.1,45.1l0,0C991.4,2417.8,971.2,2438,946.3,2438z"/>
			<path id="path2478" inkscape:connector-curvature="0" class="st11" d="M946.3,2799H314.4c-24.9,0-45.1-20.2-45.1-45.1l0,0
				c0-24.9,20.2-45.1,45.1-45.1h631.9c24.9,0,45.1,20.2,45.1,45.1l0,0C991.4,2778.8,971.2,2799,946.3,2799z"/>
			<path id="path2480" inkscape:connector-curvature="0" class="st11" d="M224.2,3069.8h-361.1c-24.9,0-45.1-20.2-45.1-45.1l0,0
				c0-24.9,20.2-45.1,45.1-45.1h361.1c24.9,0,45.1,20.2,45.1,45.1l0,0C269.3,3049.6,249.1,3069.8,224.2,3069.8z"/>
			<path id="path2482" inkscape:connector-curvature="0" class="st11" d="M43.6,3250.4H-498c-24.9,0-45.1-20.2-45.1-45.1l0,0
				c0-24.9,20.2-45.1,45.1-45.1H43.6c24.9,0,45.1,20.2,45.1,45.1l0,0C88.8,3230.2,68.6,3250.4,43.6,3250.4z"/>
			<path id="path2484" inkscape:connector-curvature="0" class="st11" d="M946.3,3250.4H224.2c-24.9,0-45.1-20.2-45.1-45.1l0,0
				c0-24.9,20.2-45.1,45.1-45.1h722.1c24.9,0,45.1,20.2,45.1,45.1l0,0C991.4,3230.2,971.2,3250.4,946.3,3250.4z"/>
			<path id="path2486" inkscape:connector-curvature="0" class="st11" d="M495,3069.8h-90.3c-24.9,0-45.1-20.2-45.1-45.1l0,0
				c0-24.9,20.2-45.1,45.1-45.1H495c24.9,0,45.1,20.2,45.1,45.1l0,0C540.1,3049.6,519.9,3069.8,495,3069.8z"/>
		</g>
		<path id="path2490" inkscape:connector-curvature="0" class="st3" d="M-317.4,3069.8H-498c-24.9,0-45.1-20.2-45.1-45.1l0,0
			c0-24.9,20.2-45.1,45.1-45.1h180.5c24.9,0,45.1,20.2,45.1,45.1l0,0C-272.3,3049.6-292.5,3069.8-317.4,3069.8z"/>
		<g id="g2500">
			<path id="path2492" inkscape:connector-curvature="0" class="st11" d="M224.2,3521.2h-361.1c-24.9,0-45.1-20.2-45.1-45.1l0,0
				c0-24.9,20.2-45.1,45.1-45.1h361.1c24.9,0,45.1,20.2,45.1,45.1l0,0C269.3,3501,249.1,3521.2,224.2,3521.2z"/>
			<path id="path2494" inkscape:connector-curvature="0" class="st11" d="M43.6,3701.7H-498c-24.9,0-45.1-20.2-45.1-45.1l0,0
				c0-24.9,20.2-45.1,45.1-45.1H43.6c24.9,0,45.1,20.2,45.1,45.1l0,0C88.8,3681.5,68.6,3701.7,43.6,3701.7z"/>
			<path id="path2496" inkscape:connector-curvature="0" class="st11" d="M946.3,3701.7H224.2c-24.9,0-45.1-20.2-45.1-45.1l0,0
				c0-24.9,20.2-45.1,45.1-45.1h722.1c24.9,0,45.1,20.2,45.1,45.1l0,0C991.4,3681.5,971.2,3701.7,946.3,3701.7z"/>
			<path id="path2498" inkscape:connector-curvature="0" class="st11" d="M495,3521.2h-90.3c-24.9,0-45.1-20.2-45.1-45.1l0,0
				c0-24.9,20.2-45.1,45.1-45.1H495c24.9,0,45.1,20.2,45.1,45.1l0,0C540.1,3501,519.9,3521.2,495,3521.2z"/>
		</g>
		<path id="path2502" inkscape:connector-curvature="0" class="st3" d="M-317.4,3521.2H-498c-24.9,0-45.1-20.2-45.1-45.1l0,0
			c0-24.9,20.2-45.1,45.1-45.1h180.5c24.9,0,45.1,20.2,45.1,45.1l0,0C-272.3,3501-292.5,3521.2-317.4,3521.2z"/>
		<g id="g2512">
			<path id="path2504" inkscape:connector-curvature="0" class="st11" d="M224.2,3972.5h-361.1c-24.9,0-45.1-20.2-45.1-45.1l0,0
				c0-24.9,20.2-45.1,45.1-45.1h361.1c24.9,0,45.1,20.2,45.1,45.1l0,0C269.3,3952.3,249.1,3972.5,224.2,3972.5z"/>
			<path id="path2506" inkscape:connector-curvature="0" class="st11" d="M43.6,4153H-498c-24.9,0-45.1-20.2-45.1-45.1l0,0
				c0-24.9,20.2-45.1,45.1-45.1H43.6c24.9,0,45.1,20.2,45.1,45.1l0,0C88.8,4132.8,68.6,4153,43.6,4153z"/>
			<path id="path2508" inkscape:connector-curvature="0" class="st11" d="M946.3,4153H224.2c-24.9,0-45.1-20.2-45.1-45.1l0,0
				c0-24.9,20.2-45.1,45.1-45.1h722.1c24.9,0,45.1,20.2,45.1,45.1l0,0C991.4,4132.8,971.2,4153,946.3,4153z"/>
			<path id="path2510" inkscape:connector-curvature="0" class="st11" d="M495,3972.5h-90.3c-24.9,0-45.1-20.2-45.1-45.1l0,0
				c0-24.9,20.2-45.1,45.1-45.1H495c24.9,0,45.1,20.2,45.1,45.1l0,0C540.1,3952.3,519.9,3972.5,495,3972.5z"/>
		</g>
		<path id="path2514" inkscape:connector-curvature="0" class="st3" d="M-317.4,3972.5H-498c-24.9,0-45.1-20.2-45.1-45.1l0,0
			c0-24.9,20.2-45.1,45.1-45.1h180.5c24.9,0,45.1,20.2,45.1,45.1l0,0C-272.3,3952.3-292.5,3972.5-317.4,3972.5z"/>
		<path id="path2516" inkscape:connector-curvature="0" class="st11" d="M946.3,2618.5H314.4c-24.9,0-45.1-20.2-45.1-45.1l0,0
			c0-24.9,20.2-45.1,45.1-45.1h631.9c24.9,0,45.1,20.2,45.1,45.1l0,0C991.4,2598.3,971.2,2618.5,946.3,2618.5z"/>
		<path id="path2518" inkscape:connector-curvature="0" class="st10" d="M946.3,2257.4H314.4c-24.9,0-45.1-20.2-45.1-45.1l0,0
			c0-24.9,20.2-45.1,45.1-45.1h631.9c24.9,0,45.1,20.2,45.1,45.1l0,0C991.4,2237.2,971.2,2257.4,946.3,2257.4z"/>
		<g id="g2520">
		</g>
		<g id="g2522">
		</g>
		<g id="g2524">
		</g>
		<g id="g2526">
		</g>
		<g id="g2528">
		</g>
		<g id="g2530">
		</g>
		<g id="g2532">
		</g>
		<g id="g2534">
		</g>
		<g id="g2536">
		</g>
		<g id="g2538">
		</g>
		<g id="g2540">
		</g>
		<g id="g2542">
		</g>
		<g id="g2544">
		</g>
		<g id="g2546">
		</g>
		<g id="g2548">
		</g>
	</g>
	<path id="path3197" inkscape:connector-curvature="0" class="st0" d="M-160.6,796.7H-394c-5.2,0-9.3-4.2-9.3-9.3V638
		c0-5.2,4.2-9.3,9.3-9.3h233.4c5.2,0,9.3,4.2,9.3,9.3v149.4C-151.2,792.6-155.4,796.7-160.6,796.7L-160.6,796.7z"/>
	<path id="path3199" inkscape:connector-curvature="0" class="st1" d="M-300.6,782.7h-84c-2.6,0-4.7-2.1-4.7-4.7V656.7
		c0-2.6,2.1-4.7,4.7-4.7h84c2.6,0,4.7,2.1,4.7,4.7v121.4C-296,780.6-298.1,782.7-300.6,782.7z"/>
	<g id="g3205" transform="matrix(0.10344923,0,0,0.10344923,3.602872,66.08621)">
		<path id="path3201" inkscape:connector-curvature="0" class="st1" d="M-1948.1,5844.4h-722.1c-24.9,0-45.1-20.2-45.1-45.1l0,0
			c0-24.9,20.2-45.1,45.1-45.1h722.1c24.9,0,45.1,20.2,45.1,45.1l0,0C-1903,5824.2-1923.2,5844.4-1948.1,5844.4z"/>
		<path id="path3203" inkscape:connector-curvature="0" class="st1" d="M-1722.5,6024.9h-947.8c-24.9,0-45.1-20.2-45.1-45.1l0,0
			c0-24.9,20.2-45.1,45.1-45.1h947.8c24.9,0,45.1,20.2,45.1,45.1l0,0C-1677.3,6004.7-1697.5,6024.9-1722.5,6024.9z"/>
	</g>
	<path id="path3207" inkscape:connector-curvature="0" class="st2" d="M-263.3,731.4h-9.3c-2.6,0-4.7-2.1-4.7-4.7l0,0
		c0-2.6,2.1-4.7,4.7-4.7h9.3c2.6,0,4.7,2.1,4.7,4.7l0,0C-258.6,729.3-260.7,731.4-263.3,731.4z"/>
	<path id="path3209" inkscape:connector-curvature="0" class="st3" d="M-188.6,731.4h-56c-2.6,0-4.7-2.1-4.7-4.7l0,0
		c0-2.6,2.1-4.7,4.7-4.7h56c2.6,0,4.7,2.1,4.7,4.7l0,0C-183.9,729.3-186,731.4-188.6,731.4z"/>
	<path id="path3211" inkscape:connector-curvature="0" class="st2" d="M-263.3,750.1h-9.3c-2.6,0-4.7-2.1-4.7-4.7l0,0
		c0-2.6,2.1-4.7,4.7-4.7h9.3c2.6,0,4.7,2.1,4.7,4.7l0,0C-258.6,748-260.7,750.1-263.3,750.1z"/>
	<path id="path3213" inkscape:connector-curvature="0" class="st3" d="M-174.6,750.1h-70c-2.6,0-4.7-2.1-4.7-4.7l0,0
		c0-2.6,2.1-4.7,4.7-4.7h70c2.6,0,4.7,2.1,4.7,4.7l0,0C-169.9,748-172,750.1-174.6,750.1L-174.6,750.1z"/>
	<path id="path3215" inkscape:connector-curvature="0" class="st2" d="M-263.3,768.7h-9.3c-2.6,0-4.7-2.1-4.7-4.7l0,0
		c0-2.6,2.1-4.7,4.7-4.7h9.3c2.6,0,4.7,2.1,4.7,4.7l0,0C-258.6,766.6-260.7,768.7-263.3,768.7z"/>
	<g id="g3219" transform="matrix(0.10344923,0,0,0.10344923,3.602872,66.08621)">
		<path id="path3217" inkscape:connector-curvature="0" class="st3" d="M-2038.4,6792.2h-361.1c-24.9,0-45.1-20.2-45.1-45.1l0,0
			c0-24.9,20.2-45.1,45.1-45.1h361.1c24.9,0,45.1,20.2,45.1,45.1l0,0C-1993.3,6772-2013.5,6792.2-2038.4,6792.2z"/>
	</g>
	<polygon id="polygon3221" class="st4" points="-342.3,774.1 -326.8,758.4 -326.8,744.7 -357.9,744.7 -357.9,758.4 	"/>
	<path id="path3223" inkscape:connector-curvature="0" class="st5" d="M-303.1,760.9l-21.2-4.7c-0.3-0.1-0.6-0.2-0.9-0.3l-17.2,9.5
		l-16.5-10c-0.4,0.4-1,0.7-1.6,0.8l-21.2,4.7c-3.1,0.7-5.3,3.3-5.3,6.4v9.7c0,3.5,2.8,6.4,6.4,6.4h76.3c3.5,0,6.4-2.8,6.4-6.4v-9.7
		C-297.9,764.2-300,761.6-303.1,760.9L-303.1,760.9z"/>
	<polygon id="polygon3225" class="st6" points="-345.6,765.3 -339.1,765.3 -338.1,783.3 -346.6,783.3 	"/>
	<g id="g3231" transform="matrix(0.14082999,0,0,0.14082999,-6.257408,89.063222)">
		<path id="path3227" inkscape:connector-curvature="0" class="st7" d="M-2081,4786.7l-78.7,67.4c-12.8,11-20.2,26.6-20.2,43.1v32.1
			h64.2c24.9,0,45.1-20.2,45.1-45.1v-68.8C-2070.6,4804.7-2074.4,4794.7-2081,4786.7z"/>
		<path id="path3229" inkscape:connector-curvature="0" class="st7" d="M-2613.2,4854.1l-78.7-67.4c-6.6,8-10.5,18-10.5,28.7v68.8
			c0,24.9,20.2,45.1,45.1,45.1h64.2v-32.1C-2593.1,4880.8-2600.4,4865.1-2613.2,4854.1z"/>
	</g>
	<g id="g3237" transform="matrix(0.14082999,0,0,0.14082999,-6.257408,89.063222)">
		<path id="path3233" inkscape:connector-curvature="0" class="st7" d="M-2497.6,4706.6l111.1,95.3c0,0-31.1,15-69.5,45.1
			c-7.9,6.2-19.9,3.7-24.1-5.2l-52.2-109.4l16.5-23.6C-2511.7,4702.9-2503.1,4701.9-2497.6,4706.6z"/>
		<path id="path3235" inkscape:connector-curvature="0" class="st7" d="M-2275.4,4706.6l-111.1,95.3c0,0,31.1,15,69.5,45.1
			c7.9,6.2,19.9,3.7,24.1-5.2l52.2-109.4l-16.5-23.6C-2261.3,4702.9-2269.9,4701.9-2275.4,4706.6z"/>
	</g>
	<path id="path3239" inkscape:connector-curvature="0" class="st8" d="M-336,687.9h-12.7c-10.5,0-19.1,8.5-19.1,19.1v13.8
		c0,3.4,1.3,6.6,3.7,9l2.6,2.6h38.1l2.6-2.6c2.4-2.4,3.7-5.6,3.7-9V707C-316.9,696.4-325.5,687.9-336,687.9z"/>
	<path id="path3241" inkscape:connector-curvature="0" class="st9" d="M-362.1,720.7l0.8,18.3c0.1,2.9,1.5,5.5,3.7,7.2l6.5,4.9
		c1.6,1.2,3.6,1.9,5.6,1.9h6.2c2,0,4-0.7,5.6-1.9l6.5-4.9c2.2-1.7,3.6-4.4,3.7-7.2l0.8-18.3c0.3-6.7-4.9-12.3-11.5-12.3h-16.6
		C-357.2,708.4-362.4,714-362.1,720.7z"/>
</g>
</svg>
