<?xml version="1.0" encoding="utf-8"?>
<!-- Generator: Adobe Illustrator 19.1.0, SVG Export Plug-In . SVG Version: 6.00 Build 0)  -->
<svg version="1.1"
	 id="svg8" xmlns:dc="http://purl.org/dc/elements/1.1/" xmlns:cc="http://creativecommons.org/ns#" xmlns:rdf="http://www.w3.org/1999/02/22-rdf-syntax-ns#" xmlns:svg="http://www.w3.org/2000/svg" xmlns:sodipodi="http://sodipodi.sourceforge.net/DTD/sodipodi-0.dtd" xmlns:inkscape="http://www.inkscape.org/namespaces/inkscape" sodipodi:docname="cotact-them.svg" inkscape:version="0.92.1 r15371"
	 xmlns="http://www.w3.org/2000/svg" xmlns:xlink="http://www.w3.org/1999/xlink" x="0px" y="0px" viewBox="0 0 1000 1000"
	 style="enable-background:new 0 0 1000 1000;" xml:space="preserve">
<style type="text/css">
	.st0{fill:#EFF2FA;}
	.st1{fill:#C3E678;}
	.st2{fill:#D29B6E;}
	.st3{fill:#B4E1FA;}
	.st4{fill:#A0D2F0;}
	.st5{fill:#5B5D6E;}
	.st6{fill:#694B4B;}
	.st7{fill:#F0C087;}
	.st8{fill:#FFD782;}
	.st9{fill:#D7DEED;}
	.st10{fill:#C7CFE2;}
	.st11{fill:#DCD6CD;}
	.st12{fill:#E8E3D9;}
	.st13{fill:#132F45;}
	.st14{fill:#33C1B3;}
	.st15{fill:#FFFFFF;}
</style>
<sodipodi:namedview  showgrid="false" inkscape:cy="595.99806" inkscape:cx="80.237144" inkscape:zoom="0.56264708" borderopacity="1.0" bordercolor="#666666" pagecolor="#ffffff" id="base" inkscape:window-maximized="1" inkscape:pageshadow="2" inkscape:pageopacity="0.0" inkscape:window-y="-8" inkscape:window-x="-8" inkscape:document-units="mm" inkscape:window-height="715" inkscape:window-width="1366" inkscape:current-layer="layer1">
	<inkscape:grid  type="xygrid" id="grid3243"></inkscape:grid>
</sodipodi:namedview>
<g id="layer1" inkscape:label="Layer 1" inkscape:groupmode="layer">
	<g id="g389" transform="matrix(0.28146887,0,0,0.28146887,31.863702,23.755411)">
		<path id="path229" inkscape:connector-curvature="0" class="st0" d="M2660.9,3468.3H701.1c-57,0-103.1-46.1-103.1-103.1V580.4
			c0-57,46.1-103.1,103.1-103.1h1959.7c57,0,103.1,46.1,103.1,103.1v2784.9C2764,3422.2,2717.9,3468.3,2660.9,3468.3z"/>
		<path id="path231" inkscape:connector-curvature="0" class="st1" d="M1474.7,1611.8H855.8c-28.5,0-51.6-23.1-51.6-51.6V735.1
			c0-28.5,23.1-51.6,51.6-51.6h618.9c28.5,0,51.6,23.1,51.6,51.6v825.2C1526.3,1588.7,1503.2,1611.8,1474.7,1611.8z"/>
		<polygon id="polygon233" class="st2" points="1291.5,1298.9 1039.1,1298.9 1039.1,1410.1 1165.3,1537.2 1291.5,1410.1 		"/>
		<path id="path235" inkscape:connector-curvature="0" class="st3" d="M1483.4,1430.1l-171.8-38.6c-2.6-0.6-5-1.6-7.2-2.8
			l-139.2,77.4l-133.7-81.1c-3.5,3.1-7.7,5.4-12.6,6.5L847,1430.1c-25.1,5.6-42.9,26.9-42.9,51.5v78.6c0,28.5,23.1,51.6,51.6,51.6
			h618.9c28.5,0,51.6-23.1,51.6-51.6v-78.6C1526.3,1457.1,1508.5,1435.8,1483.4,1430.1L1483.4,1430.1z"/>
		<g id="g241">
			<path id="path237" inkscape:connector-curvature="0" class="st4" d="M1514.3,1448.8l-90,77c-14.6,12.5-23.1,30.5-23.1,49.3v36.6
				h73.4c28.5,0,51.6-23.1,51.6-51.6v-78.6C1526.3,1469.4,1521.8,1457.9,1514.3,1448.8L1514.3,1448.8z"/>
			<path id="path239" inkscape:connector-curvature="0" class="st4" d="M906.2,1525.9l-90-77c-7.6,9.1-12,20.5-12,32.8v78.6
				c0,28.5,23.1,51.6,51.6,51.6h73.4v-36.6C929.2,1556.4,920.9,1538.4,906.2,1525.9L906.2,1525.9z"/>
		</g>
		<polygon id="polygon243" class="st5" points="1191.3,1465.8 1200,1611.8 1130.6,1611.8 1139.3,1465.8 		"/>
		<g id="g249">
			<path id="path245" inkscape:connector-curvature="0" class="st4" d="M1038.4,1357.3l126.9,108.9c0,0-35.5,17.1-79.4,51.6
				c-9,7.1-22.7,4.2-27.6-6l-59.6-125l18.9-26.9C1022.2,1353.1,1032.1,1351.9,1038.4,1357.3L1038.4,1357.3z"/>
			<path id="path247" inkscape:connector-curvature="0" class="st4" d="M1292.2,1357.3l-127,108.9c0,0,35.5,17.1,79.4,51.6
				c9,7.1,22.7,4.2,27.6-6l59.6-125l-18.9-26.9C1308.3,1353.1,1298.5,1351.9,1292.2,1357.3L1292.2,1357.3z"/>
		</g>
		<path id="path251" inkscape:connector-curvature="0" class="st6" d="M1216.9,838.2h-103.1c-85.5,0-154.7,69.3-154.7,154.7v112
			c0,27.4,10.9,53.6,30.2,72.9l21.4,21.4H1320l21.4-21.4c19.4-19.4,30.2-45.5,30.2-72.9v-112
			C1371.6,907.5,1302.3,838.2,1216.9,838.2z"/>
		<path id="path253" inkscape:connector-curvature="0" class="st7" d="M1005.1,1103.9l6.6,148.7c1,23.2,12.1,44.7,30.3,58.6
			l52.4,40.2c13.1,10.1,29.1,15.6,45.6,15.6h50.7c16.4,0,32.4-5.5,45.6-15.6l52.4-40.2c18.2-13.9,29.3-35.4,30.3-58.6l6.6-148.7
			c2.4-54.2-39.9-99.6-93-99.6h-134.3C1045.1,1004.3,1002.7,1049.7,1005.1,1103.9z"/>
		<path id="path255" inkscape:connector-curvature="0" class="st8" d="M2506.1,786.7h-721.9c-28.5,0-51.6-23.1-51.6-51.6l0,0
			c0-28.5,23.1-51.6,51.6-51.6h722c28.5,0,51.6,23.1,51.6,51.6l0,0C2557.7,763.6,2534.7,786.7,2506.1,786.7z"/>
		<g id="g269">
			<path id="path257" inkscape:connector-curvature="0" class="st9" d="M2506.1,1199.2h-721.9c-28.5,0-51.6-23.1-51.6-51.6l0,0
				c0-28.5,23.1-51.6,51.6-51.6h722c28.5,0,51.6,23.1,51.6,51.6l0,0C2557.7,1176.1,2534.7,1199.2,2506.1,1199.2z"/>
			<path id="path259" inkscape:connector-curvature="0" class="st9" d="M2506.1,1611.8h-721.9c-28.5,0-51.6-23.1-51.6-51.6l0,0
				c0-28.5,23.1-51.6,51.6-51.6h722c28.5,0,51.6,23.1,51.6,51.6l0,0C2557.7,1588.7,2534.7,1611.8,2506.1,1611.8z"/>
			<path id="path261" inkscape:connector-curvature="0" class="st9" d="M1681,1921.2h-412.5c-28.5,0-51.6-23.1-51.6-51.6l0,0
				c0-28.5,23.1-51.6,51.6-51.6H1681c28.5,0,51.6,23.1,51.6,51.6l0,0C1732.6,1898.2,1709.5,1921.2,1681,1921.2z"/>
			<path id="path263" inkscape:connector-curvature="0" class="st9" d="M1474.7,2127.5H855.8c-28.5,0-51.6-23.1-51.6-51.6l0,0
				c0-28.5,23.1-51.6,51.6-51.6h618.9c28.5,0,51.6,23.1,51.6,51.6l0,0C1526.3,2104.4,1503.2,2127.5,1474.7,2127.5z"/>
			<path id="path265" inkscape:connector-curvature="0" class="st9" d="M2506.1,2127.5H1681c-28.5,0-51.6-23.1-51.6-51.6l0,0
				c0-28.5,23.1-51.6,51.6-51.6h825.2c28.5,0,51.6,23.1,51.6,51.6l0,0C2557.7,2104.4,2534.7,2127.5,2506.1,2127.5z"/>
			<path id="path267" inkscape:connector-curvature="0" class="st9" d="M1990.4,1921.2h-103.1c-28.5,0-51.6-23.1-51.6-51.6l0,0
				c0-28.5,23.1-51.6,51.6-51.6h103.1c28.5,0,51.6,23.1,51.6,51.6l0,0C2042,1898.2,2018.9,1921.2,1990.4,1921.2z"/>
		</g>
		<path id="path271" inkscape:connector-curvature="0" class="st10" d="M1062.1,1921.2H855.9c-28.5,0-51.6-23.1-51.6-51.6l0,0
			c0-28.5,23.1-51.6,51.6-51.6h206.3c28.5,0,51.6,23.1,51.6,51.6l0,0C1113.8,1898.2,1090.6,1921.2,1062.1,1921.2z"/>
		<g id="g281">
			<path id="path273" inkscape:connector-curvature="0" class="st9" d="M1681,2436.9h-412.5c-28.5,0-51.6-23.1-51.6-51.6l0,0
				c0-28.5,23.1-51.6,51.6-51.6H1681c28.5,0,51.6,23.1,51.6,51.6l0,0C1732.6,2413.8,1709.5,2436.9,1681,2436.9z"/>
			<path id="path275" inkscape:connector-curvature="0" class="st9" d="M1474.7,2643.3H855.8c-28.5,0-51.6-23.1-51.6-51.6l0,0
				c0-28.5,23.1-51.6,51.6-51.6h618.9c28.5,0,51.6,23.1,51.6,51.6l0,0C1526.3,2620.1,1503.2,2643.3,1474.7,2643.3z"/>
			<path id="path277" inkscape:connector-curvature="0" class="st9" d="M2506.1,2643.3H1681c-28.5,0-51.6-23.1-51.6-51.6l0,0
				c0-28.5,23.1-51.6,51.6-51.6h825.2c28.5,0,51.6,23.1,51.6,51.6l0,0C2557.7,2620.1,2534.7,2643.3,2506.1,2643.3z"/>
			<path id="path279" inkscape:connector-curvature="0" class="st9" d="M1990.4,2436.9h-103.1c-28.5,0-51.6-23.1-51.6-51.6l0,0
				c0-28.5,23.1-51.6,51.6-51.6h103.1c28.5,0,51.6,23.1,51.6,51.6l0,0C2042,2413.8,2018.9,2436.9,1990.4,2436.9z"/>
		</g>
		<path id="path283" inkscape:connector-curvature="0" class="st10" d="M1062.1,2436.9H855.9c-28.5,0-51.6-23.1-51.6-51.6l0,0
			c0-28.5,23.1-51.6,51.6-51.6h206.3c28.5,0,51.6,23.1,51.6,51.6l0,0C1113.8,2413.8,1090.6,2436.9,1062.1,2436.9z"/>
		<g id="g293">
			<path id="path285" inkscape:connector-curvature="0" class="st9" d="M1681,2952.7h-412.5c-28.5,0-51.6-23.1-51.6-51.6l0,0
				c0-28.5,23.1-51.6,51.6-51.6H1681c28.5,0,51.6,23.1,51.6,51.6l0,0C1732.6,2929.6,1709.5,2952.7,1681,2952.7z"/>
			<path id="path287" inkscape:connector-curvature="0" class="st9" d="M1474.7,3158.9H855.8c-28.5,0-51.6-23.1-51.6-51.6l0,0
				c0-28.5,23.1-51.6,51.6-51.6h618.9c28.5,0,51.6,23.1,51.6,51.6l0,0C1526.3,3135.9,1503.2,3158.9,1474.7,3158.9z"/>
			<path id="path289" inkscape:connector-curvature="0" class="st9" d="M2506.1,3158.9H1681c-28.5,0-51.6-23.1-51.6-51.6l0,0
				c0-28.5,23.1-51.6,51.6-51.6h825.2c28.5,0,51.6,23.1,51.6,51.6l0,0C2557.7,3135.9,2534.7,3158.9,2506.1,3158.9z"/>
			<path id="path291" inkscape:connector-curvature="0" class="st9" d="M1990.4,2952.7h-103.1c-28.5,0-51.6-23.1-51.6-51.6l0,0
				c0-28.5,23.1-51.6,51.6-51.6h103.1c28.5,0,51.6,23.1,51.6,51.6l0,0C2042,2929.6,2018.9,2952.7,1990.4,2952.7z"/>
		</g>
		<path id="path295" inkscape:connector-curvature="0" class="st10" d="M1062.1,2952.7H855.9c-28.5,0-51.6-23.1-51.6-51.6l0,0
			c0-28.5,23.1-51.6,51.6-51.6h206.3c28.5,0,51.6,23.1,51.6,51.6l0,0C1113.8,2929.6,1090.6,2952.7,1062.1,2952.7z"/>
		<path id="path297" inkscape:connector-curvature="0" class="st9" d="M2506.1,1405.5h-721.9c-28.5,0-51.6-23.1-51.6-51.6l0,0
			c0-28.5,23.1-51.6,51.6-51.6h722c28.5,0,51.6,23.1,51.6,51.6l0,0C2557.7,1382.4,2534.7,1405.5,2506.1,1405.5z"/>
		<path id="path299" inkscape:connector-curvature="0" class="st8" d="M2506.1,992.9h-721.9c-28.5,0-51.6-23.1-51.6-51.6l0,0
			c0-28.5,23.1-51.6,51.6-51.6h722c28.5,0,51.6,23.1,51.6,51.6l0,0C2557.7,969.9,2534.7,992.9,2506.1,992.9z"/>
		<g id="g301">
		</g>
		<g id="g303">
		</g>
		<g id="g305">
		</g>
		<g id="g307">
		</g>
		<g id="g309">
		</g>
		<g id="g311">
		</g>
		<g id="g313">
		</g>
		<g id="g315">
		</g>
		<g id="g317">
		</g>
		<g id="g319">
		</g>
		<g id="g321">
		</g>
		<g id="g323">
		</g>
		<g id="g325">
		</g>
		<g id="g327">
		</g>
		<g id="g329">
		</g>
	</g>
	<g id="g1055" transform="matrix(0.31548469,0,0,0.31548469,-59.9718,11.353174)">
	</g>
	<g id="g1057" transform="matrix(0.31548469,0,0,0.31548469,-59.9718,11.353174)">
	</g>
	<g id="g1059" transform="matrix(0.31548469,0,0,0.31548469,-59.9718,11.353174)">
	</g>
	<g id="g1061" transform="matrix(0.31548469,0,0,0.31548469,-59.9718,11.353174)">
	</g>
	<g id="g1063" transform="matrix(0.31548469,0,0,0.31548469,-59.9718,11.353174)">
	</g>
	<g id="g1065" transform="matrix(0.31548469,0,0,0.31548469,-59.9718,11.353174)">
	</g>
	<g id="g1067" transform="matrix(0.31548469,0,0,0.31548469,-59.9718,11.353174)">
	</g>
	<g id="g1069" transform="matrix(0.31548469,0,0,0.31548469,-59.9718,11.353174)">
	</g>
	<g id="g1071" transform="matrix(0.31548469,0,0,0.31548469,-59.9718,11.353174)">
	</g>
	<g id="g1073" transform="matrix(0.31548469,0,0,0.31548469,-59.9718,11.353174)">
	</g>
	<g id="g1075" transform="matrix(0.31548469,0,0,0.31548469,-59.9718,11.353174)">
	</g>
	<g id="g1077" transform="matrix(0.31548469,0,0,0.31548469,-59.9718,11.353174)">
	</g>
	<g id="g1079" transform="matrix(0.31548469,0,0,0.31548469,-59.9718,11.353174)">
	</g>
	<g id="g1081" transform="matrix(0.31548469,0,0,0.31548469,-59.9718,11.353174)">
	</g>
	<g id="g1083" transform="matrix(0.31548469,0,0,0.31548469,-59.9718,11.353174)">
	</g>
	<g id="g2104" transform="matrix(0.26458333,0,0,0.26458333,1.644215,40.701396)">
	</g>
	<g id="g2106" transform="matrix(0.26458333,0,0,0.26458333,1.644215,40.701396)">
	</g>
	<g id="g2108" transform="matrix(0.26458333,0,0,0.26458333,1.644215,40.701396)">
	</g>
	<g id="g2110" transform="matrix(0.26458333,0,0,0.26458333,1.644215,40.701396)">
	</g>
	<g id="g2112" transform="matrix(0.26458333,0,0,0.26458333,1.644215,40.701396)">
	</g>
	<g id="g2114" transform="matrix(0.26458333,0,0,0.26458333,1.644215,40.701396)">
	</g>
	<g id="g2116" transform="matrix(0.26458333,0,0,0.26458333,1.644215,40.701396)">
	</g>
	<g id="g2118" transform="matrix(0.26458333,0,0,0.26458333,1.644215,40.701396)">
	</g>
	<g id="g2120" transform="matrix(0.26458333,0,0,0.26458333,1.644215,40.701396)">
	</g>
	<g id="g2122" transform="matrix(0.26458333,0,0,0.26458333,1.644215,40.701396)">
	</g>
	<g id="g2124" transform="matrix(0.26458333,0,0,0.26458333,1.644215,40.701396)">
	</g>
	<g id="g2126" transform="matrix(0.26458333,0,0,0.26458333,1.644215,40.701396)">
	</g>
	<g id="g2128" transform="matrix(0.26458333,0,0,0.26458333,1.644215,40.701396)">
	</g>
	<g id="g2130" transform="matrix(0.26458333,0,0,0.26458333,1.644215,40.701396)">
	</g>
	<g id="g2132" transform="matrix(0.26458333,0,0,0.26458333,1.644215,40.701396)">
	</g>
	<g id="g2261" transform="matrix(0.36423537,0,0,0.36423537,-202.22507,38.718959)">
	</g>
	<g id="g2263" transform="matrix(0.36423537,0,0,0.36423537,-202.22507,38.718959)">
	</g>
	<g id="g2265" transform="matrix(0.36423537,0,0,0.36423537,-202.22507,38.718959)">
	</g>
	<g id="g2267" transform="matrix(0.36423537,0,0,0.36423537,-202.22507,38.718959)">
	</g>
	<g id="g2269" transform="matrix(0.36423537,0,0,0.36423537,-202.22507,38.718959)">
	</g>
	<g id="g2271" transform="matrix(0.36423537,0,0,0.36423537,-202.22507,38.718959)">
	</g>
	<g id="g2273" transform="matrix(0.36423537,0,0,0.36423537,-202.22507,38.718959)">
	</g>
	<g id="g2275" transform="matrix(0.36423537,0,0,0.36423537,-202.22507,38.718959)">
	</g>
	<g id="g2277" transform="matrix(0.36423537,0,0,0.36423537,-202.22507,38.718959)">
	</g>
	<g id="g2279" transform="matrix(0.36423537,0,0,0.36423537,-202.22507,38.718959)">
	</g>
	<g id="g2281" transform="matrix(0.36423537,0,0,0.36423537,-202.22507,38.718959)">
	</g>
	<g id="g2283" transform="matrix(0.36423537,0,0,0.36423537,-202.22507,38.718959)">
	</g>
	<g id="g2285" transform="matrix(0.36423537,0,0,0.36423537,-202.22507,38.718959)">
	</g>
	<g id="g2287" transform="matrix(0.36423537,0,0,0.36423537,-202.22507,38.718959)">
	</g>
	<g id="g2289" transform="matrix(0.36423537,0,0,0.36423537,-202.22507,38.718959)">
	</g>
	<g id="g3456" transform="matrix(0.55481745,0,0,0.55481745,114.22728,119.08307)">
		<g id="g3394">
			<g id="g3386">
				<polygon id="polygon3380" class="st11" points="1140,1331.1 1140,1103.3 812.9,1103.3 812.9,1331.1 976.5,1331.1 				"/>
				<path id="path3382" inkscape:connector-curvature="0" class="st12" d="M993.8,1232.4c-9.6,8.5-25.1,8.5-34.6,0l-12.2-10.8
					c-38.1,34-134,109.4-134,109.4h126.2h74.7H1140c0,0-95.9-75.4-134-109.4L993.8,1232.4z"/>
				<path id="path3384" inkscape:connector-curvature="0" class="st13" d="M812.9,1103.3l146.2,129.2c9.6,8.5,25.1,8.5,34.6,0
					l146.2-129.2L812.9,1103.3L812.9,1103.3z"/>
			</g>
			<g id="g3392">
				<circle id="circle3388" class="st14" cx="1081.6" cy="1313.6" r="70.1"/>
				<path id="path3390" inkscape:connector-curvature="0" class="st15" d="M1120,1279.6c-2.7-1.9-6.3-1.2-8.2,1.4l-32.7,47
					l-23.1-18.9c-2.5-2-6.1-1.7-8.3,0.8c-2,2.5-1.7,6.1,0.8,8.3l28,23c1,0.8,2.4,1.3,3.7,1.3c0.3,0,0.5,0,0.8-0.1
					c1.6-0.3,3-1.1,4-2.4l36.3-52.2C1123.3,1285,1122.7,1281.4,1120,1279.6z"/>
			</g>
		</g>
		<g id="g3396">
		</g>
		<g id="g3398">
		</g>
		<g id="g3400">
		</g>
		<g id="g3402">
		</g>
		<g id="g3404">
		</g>
		<g id="g3406">
		</g>
		<g id="g3408">
		</g>
		<g id="g3410">
		</g>
		<g id="g3412">
		</g>
		<g id="g3414">
		</g>
		<g id="g3416">
		</g>
		<g id="g3418">
		</g>
		<g id="g3420">
		</g>
		<g id="g3422">
		</g>
		<g id="g3424">
		</g>
	</g>
	<g id="g3531" transform="matrix(0.55434344,0,0,0.55434344,60.927505,119.73509)">
		<g id="g3470">
			<g id="g3462">
				<path id="path3458" inkscape:connector-curvature="0" class="st13" d="M654.9,1322.5c-11.1-21-52-45-52-45
					c-9.3-5.3-20.5-5.9-25.7,3.5c0,0-13.3,15.9-16.7,18.2c-15.4,10.4-29.7,10-44.2-4.4l-33.6-33.6l-33.6-33.6
					c-14.5-14.5-14.8-28.7-4.4-44.2c2.3-3.4,18.2-16.7,18.2-16.7c9.4-5.3,8.8-16.4,3.5-25.7c0,0-24-40.9-45-52c-8.9-4.7-19.9-3-27,4
					l-14.8,14.8c-47,47-23.8,100.1,23.2,147.1l42.9,42.9l42.9,42.9c47,47,100.1,70.1,147.1,23.2l14.8-14.8
					C658,1342.4,659.6,1331.5,654.9,1322.5z"/>
				<path id="path3460" inkscape:connector-curvature="0" class="st13" d="M660.1,1319.8c-11.7-22.1-52.5-46.2-54.2-47.3
					c-5.2-2.9-10.7-4.5-15.8-4.5c-7.6,0-13.8,3.5-17.6,9.9c-6,7.2-13.4,15.5-15.2,16.8c-13.9,9.4-24.8,8.3-36.8-3.7l-67.1-67.1
					c-12-12-13-23-3.7-36.7c1.3-1.9,9.6-9.2,16.8-15.2c4.5-2.7,7.7-6.7,9-11.6c1.9-6.6,0.5-14.3-3.8-21.8
					c-1-1.8-25.1-42.4-47.2-54.2c-4.1-2.2-8.8-3.4-13.5-3.4c-7.7,0-15,3-20.4,8.4l-14.8,14.8c-23.5,23.4-31.9,50-25.3,79
					c5.6,24.2,21.9,49.8,48.4,76.4l85.9,85.9c33.6,33.6,65.6,50.6,95.1,50.6l0,0c21.7,0,42-9.3,60.2-27.4l14.8-14.8
					C664,1344.7,666,1331.1,660.1,1319.8z M646.8,1345.4l-14.8,14.8c-15.9,15.9-33.4,24-51.9,24l0,0c-26.4,0-55.6-15.9-86.9-47.1
					l-85.9-85.9c-24.9-24.9-40.2-48.7-45.3-70.7c-5.8-25.1,1.4-47.4,22.1-68.1l14.8-14.8c3.3-3.2,7.6-5.1,12.1-5.1
					c2.8,0,5.6,0.7,8,2c19.3,10.2,42.3,49.4,42.6,49.8c2.6,4.6,3.6,9.4,2.7,12.8c-0.6,2.1-1.9,3.7-4,4.9l-0.8,0.6
					c-5,4.1-16.8,14.2-19.4,17.8c-3.5,5.3-6,10.4-7.2,15.6c-4.1-8.3-7.5-17.8-8.6-28.5c-0.3-3.2-3.2-5.5-6.4-5.2
					c-3.2,0.3-5.6,3.2-5.2,6.4c4.2,40.6,35.8,67.1,37.1,68.2c0.2,0.1,0.3,0.2,0.5,0.3l62,62c0.3,0.3,0.5,0.5,0.8,0.8
					c0.2,0.3,0.3,0.7,0.6,0.9c1.1,1.1,27.4,26.7,67.8,30.9c0.2,0,0.4,0,0.6,0c2.9,0,5.5-2.3,5.8-5.2c0.3-3.2-2-6.1-5.2-6.4
					c-12.4-1.3-23.2-4.9-32.4-9.1c4.5-1.3,9-3.6,13.6-6.7c3.7-2.4,13.7-14.3,17.8-19.4l0.6-0.8c1.6-2.9,4.1-4.4,7.7-4.4
					c3,0,6.6,1.1,9.9,3c10.9,6.4,41.3,26.6,49.8,42.6C653.3,1332,652.1,1340.1,646.8,1345.4L646.8,1345.4z"/>
			</g>
			<g id="g3468">
				<circle id="circle3464" class="st14" cx="418.1" cy="1314.2" r="70.1"/>
				<path id="path3466" inkscape:connector-curvature="0" class="st15" d="M456.5,1280.2c-2.7-1.9-6.3-1.2-8.2,1.4l-32.7,47
					l-23.1-18.9c-2.5-2-6.1-1.7-8.3,0.8c-2,2.5-1.7,6.1,0.8,8.3l28,23c1,0.8,2.4,1.3,3.7,1.3c0.3,0,0.5,0,0.8-0.1
					c1.6-0.3,3-1.1,4-2.4l36.3-52.2C459.8,1285.7,459.2,1282,456.5,1280.2z"/>
			</g>
		</g>
		<g id="g3472">
		</g>
		<g id="g3474">
		</g>
		<g id="g3476">
		</g>
		<g id="g3478">
		</g>
		<g id="g3480">
		</g>
		<g id="g3482">
		</g>
		<g id="g3484">
		</g>
		<g id="g3486">
		</g>
		<g id="g3488">
		</g>
		<g id="g3490">
		</g>
		<g id="g3492">
		</g>
		<g id="g3494">
		</g>
		<g id="g3496">
		</g>
		<g id="g3498">
		</g>
		<g id="g3500">
		</g>
	</g>
</g>
</svg>
