<?xml version="1.0" encoding="utf-8"?>
<!-- Generator: Adobe Illustrator 19.1.0, SVG Export Plug-In . SVG Version: 6.00 Build 0)  -->
<svg version="1.1"
	 id="svg8" xmlns:dc="http://purl.org/dc/elements/1.1/" xmlns:cc="http://creativecommons.org/ns#" xmlns:rdf="http://www.w3.org/1999/02/22-rdf-syntax-ns#" xmlns:svg="http://www.w3.org/2000/svg" xmlns:sodipodi="http://sodipodi.sourceforge.net/DTD/sodipodi-0.dtd" xmlns:inkscape="http://www.inkscape.org/namespaces/inkscape" sodipodi:docname="select-mORs.svg" inkscape:version="0.92.1 r15371"
	 xmlns="http://www.w3.org/2000/svg" xmlns:xlink="http://www.w3.org/1999/xlink" x="0px" y="0px" viewBox="0 0 1000 1000"
	 style="enable-background:new 0 0 1000 1000;" xml:space="preserve">
<style type="text/css">
	.st0{fill:#C7CFE2;}
	.st1{fill:#E6AF78;}
	.st2{fill:#EFF2FA;}
	.st3{fill:#D29B6E;}
	.st4{fill:#F0C087;}
	.st5{fill:#E4EAF6;}
	.st6{fill:#132F45;}
	.st7{fill:#785550;}
	.st8{fill:#694B4B;}
	.st9{fill:#5A4146;}
	.st10{fill:#B4E1FA;}
	.st11{fill:#A0D2F0;}
</style>
<sodipodi:namedview  showgrid="false" inkscape:cy="801.0064" inkscape:cx="177.71923" inkscape:zoom="0.39785156" borderopacity="1.0" bordercolor="#666666" pagecolor="#ffffff" id="base" inkscape:window-maximized="1" inkscape:pageshadow="2" inkscape:pageopacity="0.0" inkscape:window-y="-8" inkscape:window-x="-8" inkscape:document-units="mm" inkscape:window-height="715" inkscape:window-width="1366" inkscape:current-layer="layer1">
	</sodipodi:namedview>
<g id="layer1" inkscape:label="Layer 1" inkscape:groupmode="layer">
	<g id="g1148" transform="matrix(0.41258553,0,0,0.41258553,-0.333477,-0.07949568)">
		<g id="g977">
			<path id="path973" inkscape:connector-curvature="0" class="st0" d="M1911.2,1514.5c-17.9,0-32.3-14.5-32.3-32.3
				c0-374.3-304.5-678.9-678.9-678.9c-241.6,0-466.9,130.1-588,339.5c-9,15.5-28.8,20.8-44.1,11.8c-15.5-9-20.8-28.7-11.8-44.1
				c132.6-229.3,379.4-371.8,644-371.8c409.9,0,743.5,333.5,743.5,743.5C1943.5,1500.1,1929,1514.5,1911.2,1514.5z"/>
			<path id="path975" inkscape:connector-curvature="0" class="st0" d="M1200,2225.7c-409.9,0-743.5-333.5-743.5-743.5
				c0-17.9,14.5-32.3,32.3-32.3c17.8,0,32.3,14.5,32.3,32.3c0,374.3,304.5,678.9,678.9,678.9c187.5,0,368.6-78.7,496.6-216
				c12.2-13.1,32.7-13.8,45.7-1.6c13.1,12.2,13.8,32.7,1.6,45.7C1603.7,2139.5,1405.5,2225.7,1200,2225.7L1200,2225.7z"/>
		</g>
		<polygon id="polygon979" class="st1" points="1781.9,2296.5 1904.9,2187.1 1904.9,2091.4 1658.8,2091.4 1658.8,2187.1 		"/>
		<path id="path981" inkscape:connector-curvature="0" class="st2" d="M2095.3,2232l-169.3-39.8c-2.6-0.6-4.9-1.6-7.1-2.9l-137.1,80
			l-131.7-83.9c-3.4,3.2-7.7,5.6-12.5,6.7l-169.3,39.8c-24.7,5.8-42.2,27.9-42.2,53.3v107.1c0,15.1,12.2,27.3,27.3,27.3H2110
			c15.1,0,27.3-12.2,27.3-27.3v-107.1C2137.5,2259.8,2120,2237.8,2095.3,2232L2095.3,2232z"/>
		<path id="path983" inkscape:connector-curvature="0" class="st3" d="M1658.8,2091.4v101c155,55.8,246.2-83.9,246.2-83.9v-17
			H1658.8z"/>
		<path id="path985" inkscape:connector-curvature="0" class="st4" d="M1604.1,1776.9l11.9,262.2c1.1,24.5,13.1,47.2,32.8,61.9
			l56.5,42.4c14.2,10.7,31.5,16.4,49.2,16.4h54.7c17.7,0,35-5.7,49.2-16.4l56.5-42.4c19.6-14.7,31.6-37.4,32.8-61.9l11.9-262.2
			L1604.1,1776.9z"/>
		<path id="path987" inkscape:connector-curvature="0" class="st1" d="M1740.8,1831.5c54.7,0,136.7-13.7,156.3-54.7h-293l11.9,262.2
			c1.1,24.5,13.1,47.2,32.8,61.9l56.5,42.4c14.2,10.7,31.5,16.4,49.2,16.4h27.3c-27.3,0-82.1-54.7-82.1-123.1
			c0-33.5,0-123.1,0-164.1C1699.8,1858.9,1713.5,1831.5,1740.8,1831.5L1740.8,1831.5z"/>
		<g id="g993">
			<path id="path989" inkscape:connector-curvature="0" class="st5" d="M2037,2330.9l88.7-79.6c7.4,9.4,11.8,21.2,11.8,33.9v107.1
				c0,15.1-12.2,27.3-27.3,27.3h-95.7v-37.9C2014.3,2362.3,2022.6,2343.8,2037,2330.9L2037,2330.9z"/>
			<path id="path991" inkscape:connector-curvature="0" class="st5" d="M1526.7,2330.9l-88.7-79.6c-7.4,9.4-11.8,21.2-11.8,33.9
				v107.1c0,15.1,12.2,27.3,27.3,27.3h95.8v-37.9C1549.4,2362.3,1541.1,2343.8,1526.7,2330.9L1526.7,2330.9z"/>
		</g>
		<polygon id="polygon995" class="st6" points="1807.5,2296.5 1816,2419.7 1747.7,2419.7 1756.3,2296.5 		"/>
		<path id="path997" inkscape:connector-curvature="0" class="st6" d="M1816,2269.2h-68.4v9.9c0,17.2,13.9,31.1,31.1,31.1h6.2
			c17.2,0,31.1-13.9,31.1-31.1L1816,2269.2L1816,2269.2z"/>
		<g id="g1003">
			<path id="path999" inkscape:connector-curvature="0" class="st5" d="M1656.8,2156.7l125,112.5c0,0-35,17.7-78.2,53.3
				c-8.9,7.4-22.4,4.3-27.2-6.1l-58.8-129.2l18.6-27.9C1641,2152.4,1650.6,2151.1,1656.8,2156.7z"/>
			<path id="path1001" inkscape:connector-curvature="0" class="st5" d="M1906.9,2156.7l-125,112.5c0,0,35,17.7,78.2,53.3
				c8.9,7.4,22.4,4.3,27.2-6.1l58.8-129.2l-18.6-27.9C1922.8,2152.4,1913.1,2151.1,1906.9,2156.7z"/>
		</g>
		<path id="path1005" inkscape:connector-curvature="0" class="st7" d="M1864.8,1686.2l12.9,90.6c58.5,11.7,67,103.5,68.1,129.8
			c0.2,4.7,1.8,9.4,4.3,13.4l22.3,34.6c0,0-7.7-57.3,27.3-95.7C1999.8,1858.9,2011.8,1631.5,1864.8,1686.2L1864.8,1686.2z"/>
		<path id="path1007" inkscape:connector-curvature="0" class="st4" d="M1986.2,1948.8l-15.4,61.8c-1.9,7.3-8.4,12.5-16,12.5l0,0
			c-8.3,0-15.3-6.2-16.3-14.4l-7.9-63.2c-2.1-16.9,11.1-31.8,28.1-31.8h0.1C1977.1,1913.6,1990.6,1930.9,1986.2,1948.8
			L1986.2,1948.8z"/>
		<path id="path1009" inkscape:connector-curvature="0" class="st8" d="M1617.2,1661.7l20.2,13.8c-91.4,67.5-74.3,183.4-74.3,183.4
			c27.3,27.3,27.3,95.7,27.3,95.7l27.3-27.3c0,0-10.5-79,41-109.4c47.9-28.2,89.7-13.7,132.5-13.7c114.5,0,146.6-43.1,141-95.7
			c-2.9-27.2-44.4-83.9-150.5-82.1C1739.1,1627.1,1658.8,1640.1,1617.2,1661.7L1617.2,1661.7z"/>
		<path id="path1011" inkscape:connector-curvature="0" class="st9" d="M1609.2,1792.2c0,0-14.6-57.3,28.2-116.7
			c-91.4,67.5-74.3,183.4-74.3,183.4c27.3,27.3,27.3,95.7,27.3,95.7l27.3-27.3c0,0-10.5-79,41-109.4c47.9-28.2,89.7-13.7,132.5-13.7
			c18.7,0,34.8-1.2,49.3-3.4C1752.4,1803.7,1700.4,1736.9,1609.2,1792.2L1609.2,1792.2z"/>
		<path id="path1013" inkscape:connector-curvature="0" class="st1" d="M1577.6,1948.8l15.4,61.8c1.9,7.3,8.4,12.5,16,12.5l0,0
			c8.3,0,15.3-6.2,16.3-14.4l7.9-63.2c2.1-16.9-11.1-31.8-28.1-31.8h-0.1C1586.6,1913.6,1573.1,1930.9,1577.6,1948.8L1577.6,1948.8z
			"/>
		<path id="path1015" inkscape:connector-curvature="0" class="st5" d="M1948.4,2392.3h-73.3c-13.7,0-24.9,11.2-24.9,24.9v2.5h123.1
			v-2.5C1973.4,2403.4,1962.2,2392.3,1948.4,2392.3z"/>
		<path id="path1017" inkscape:connector-curvature="0" class="st8" d="M553.5,544.8c-270.9,0-240.8,329.4-239.6,568.1
			c0.1,9,4.8,17.1,12.5,21.8c30,18.1,112.4,60.4,227.1,60.4s197.1-42.3,227.1-60.4c7.7-4.6,12.5-12.8,12.5-21.8
			C794.3,874.2,824.3,544.8,553.5,544.8z"/>
		<path id="path1019" inkscape:connector-curvature="0" class="st9" d="M536.1,545.4c-252,14.2-223.4,334-222.2,567.5
			c0.1,9,4.8,17.1,12.5,21.8c30,18.1,112.4,60.4,227.1,60.4L621.9,716"/>
		<path id="path1021" inkscape:connector-curvature="0" class="st8" d="M553.5,544.8c-154,0-164.7,186.1-164.7,186.1
			c88.8-14.9,143.3,22.5,233.2-14.9l-68.5,479.2c114.7,0,197.1-42.3,227.1-60.4c7.7-4.6,12.5-12.8,12.5-21.8
			C794.3,874.2,824.3,544.8,553.5,544.8z"/>
		<path id="path1023" inkscape:connector-curvature="0" class="st7" d="M793.1,1112.9c1.1-205.1,23.2-477-142.4-549.5
			c-2.9,15-8.1,56.9,5.5,84.1c34.2,68.5,68.5,68.5,102.7,119.8c34.2,188.2-65.4,388.1-98.5,415.3l0,0c58.6-13.9,100.7-36,120.3-47.8
			C788.3,1130,793.1,1121.9,793.1,1112.9z"/>
		<path id="path1025" inkscape:connector-curvature="0" class="st1" d="M812.8,1164.8l-152.7-63.7c-12.8-5.3-21.1-17.8-21.1-31.6
			v-41.3H467.9v41.3c0,13.8-8.3,26.2-21.1,31.6l-152.7,63.7c-19.1,8-31.6,26.6-31.6,47.4v68.5c0,18.9,15.3,34.2,34.2,34.2h513.4
			c18.9,0,34.2-15.3,34.2-34.2v-68.5C844.4,1191.4,831.9,1172.7,812.8,1164.8z"/>
		<path id="path1027" inkscape:connector-curvature="0" class="st10" d="M812.8,1164.8l-147.7-61.6l-111.7,48.2l-111.7-48.2
			l-147.7,61.6c-19.1,8-31.6,26.6-31.6,47.4v68.5c0,18.9,15.3,34.2,34.2,34.2h513.4c18.9,0,34.2-15.3,34.2-34.2v-68.5
			C844.4,1191.4,831.9,1172.7,812.8,1164.8z"/>
		<path id="path1029" inkscape:connector-curvature="0" class="st3" d="M639.1,1028.2H467.9v41.3c0,13.8-8.3,26.2-21.1,31.6
			L423,1111C605.5,1157.6,639.1,1028.2,639.1,1028.2L639.1,1028.2z"/>
		<g id="g1041">
			<path id="path1031" inkscape:connector-curvature="0" class="st11" d="M346,1231l-68.7-54.7c-9.2,9.4-14.7,22.1-14.7,35.9v68.5
				c0,18.9,15.3,34.2,34.2,34.2h68.5v-43.7C365.2,1255.4,358.1,1240.7,346,1231z"/>
			<path id="path1033" inkscape:connector-curvature="0" class="st11" d="M844.4,1280.6v-68.5c0-13.6-5.4-26.2-14.5-35.6L761,1231
				c-12.2,9.8-19.3,24.5-19.3,40.1v43.7h68.5C829.1,1314.8,844.4,1299.5,844.4,1280.6z"/>
			<path id="path1035" inkscape:connector-curvature="0" class="st6" d="M554.4,1280.6h-1.9c-8.9,0-16.2-7.2-16.2-16.2v-112.9h34.2
				v113C570.6,1273.4,563.3,1280.6,554.4,1280.6L554.4,1280.6z"/>
			<path id="path1037" inkscape:connector-curvature="0" class="st6" d="M553.5,1151.5l-98-73.5c-6.3-4.7-15.3-3.2-19.6,3.3
				l-19.4,29l60,84.1c4.6,6.4,13.6,7.7,19.7,2.7L553.5,1151.5z"/>
			<path id="path1039" inkscape:connector-curvature="0" class="st6" d="M553.5,1151.5l98-73.5c6.3-4.7,15.3-3.2,19.6,3.3l19.4,29
				l-60,84.1c-4.6,6.4-13.6,7.7-19.7,2.7L553.5,1151.5z"/>
		</g>
		<path id="path1043" inkscape:connector-curvature="0" class="st4" d="M639.1,698.8c-85.6,85.6-253.5,17.1-253.5,154l10.6,100.8
			c2,22.5,15.1,42.7,34.9,53.7l97.4,54.1c15.5,8.6,34.4,8.6,49.9,0l97.4-54.1c19.8-11,32.9-31.1,34.9-53.7l12.2-119.8
			c0.9-8.5,1.1-17.1,0.8-25.6C717.4,764.7,656.2,733,639.1,698.8z"/>
		<path id="path1045" inkscape:connector-curvature="0" class="st1" d="M385.5,852.8l10.6,100.8c2,22.5,15.1,42.7,34.9,53.7
			l97.4,54.1c10.8,6,23.1,7.5,34.8,5.2l0,0c0,0-49.2-14.9-78.4-94c-9-24.2-21.4-152.6-10.7-168.3c21.1-31,139.1-34.2,173.9-91.8
			c-1.7-2.2-3.3-4.3-4.8-6.4c-0.2-0.2-0.2-0.3-0.4-0.5c-1.5-2.2-2.9-4.6-4-6.8C553.5,784.3,385.5,715.9,385.5,852.8z"/>
		<path id="path1047" inkscape:connector-curvature="0" class="st11" d="M675.2,1280.6h-38c-17.9,0-32.3,14.5-32.3,32.3v1.9h102.7
			v-1.9C707.5,1295.1,693,1280.6,675.2,1280.6z"/>
		<g id="g1053">
			<path id="path1049" inkscape:connector-curvature="0" class="st0" d="M618.1,1579.2c-8.3,0-16.6-3.2-22.8-9.4l-106.5-106.5
				l-106.5,106.5c-12.6,12.6-33.1,12.6-45.7,0c-12.6-12.6-12.6-33.1,0-45.7L466,1394.7c12.6-12.6,33.1-12.6,45.7,0L641,1524.1
				c12.6,12.6,12.6,33.1,0,45.7C634.7,1576,626.4,1579.2,618.1,1579.2z"/>
			<path id="path1051" inkscape:connector-curvature="0" class="st0" d="M1911.2,1579.2c-8.3,0-16.6-3.2-22.8-9.4L1759,1440.4
				c-12.6-12.6-12.6-33.1,0-45.7c12.6-12.6,33.1-12.6,45.7,0l106.5,106.5l106.5-106.5c12.6-12.6,33.1-12.6,45.7,0
				c12.6,12.6,12.6,33.1,0,45.7L1934,1569.7C1927.7,1576,1919.5,1579.2,1911.2,1579.2z"/>
		</g>
		<g id="g1055">
		</g>
		<g id="g1057">
		</g>
		<g id="g1059">
		</g>
		<g id="g1061">
		</g>
		<g id="g1063">
		</g>
		<g id="g1065">
		</g>
		<g id="g1067">
		</g>
		<g id="g1069">
		</g>
		<g id="g1071">
		</g>
		<g id="g1073">
		</g>
		<g id="g1075">
		</g>
		<g id="g1077">
		</g>
		<g id="g1079">
		</g>
		<g id="g1081">
		</g>
		<g id="g1083">
		</g>
	</g>
	<g id="g455" transform="matrix(0.22831775,0,0,0.22831775,0.40635442,124.70603)">
		<path id="path391" inkscape:connector-curvature="0" class="st4" d="M2255.5,3053.5h-479.4v-32.4c0-53.6-43.4-96.9-96.9-96.9
			h-209.5c-71.9,0-141.7,23.9-198.5,68.1l-126.8,98.6c-22.7,17.7-50.6,27.3-79.4,27.3H871V3797h116.2c48.1,0,96,3.9,143.5,11.8
			l51.5,8.6c47.5,7.9,95.5,11.8,143.6,11.8h310.1c52.5,0,99.6-39.3,102.4-91.8c2.9-55.9-41.6-102.2-96.9-102.2h59.2
			c52.5,0,99.6-39.3,102.4-91.8c2.9-55.9-41.6-102.2-96.9-102.2h64.7c52.5,0,99.6-39.3,102.4-91.8c2.9-55.9-41.6-102.2-96.9-102.2
			H2261c55.3,0,99.7-46.2,96.9-102.2C2355.1,3092.7,2308,3053.5,2255.5,3053.5z"/>
		<rect id="rect393" x="870.9" y="3118.1" class="st1" width="64.7" height="678.9"/>
		<path id="path395" inkscape:connector-curvature="0" class="st6" d="M838.7,3829.2H515.4c-17.9,0-32.3-14.5-32.3-32.3v-678.9
			c0-17.9,14.5-32.3,32.3-32.3h323.3c17.9,0,32.3,14.5,32.3,32.3v678.9C870.9,3814.8,856.5,3829.2,838.7,3829.2z"/>
		<circle id="circle397" class="st2" cx="677" cy="3667.6" r="64.7"/>
		<g id="g399">
		</g>
		<g id="g401">
		</g>
		<g id="g403">
		</g>
		<g id="g405">
		</g>
		<g id="g407">
		</g>
		<g id="g409">
		</g>
		<g id="g411">
		</g>
		<g id="g413">
		</g>
		<g id="g415">
		</g>
		<g id="g417">
		</g>
		<g id="g419">
		</g>
		<g id="g421">
		</g>
		<g id="g423">
		</g>
		<g id="g425">
		</g>
		<g id="g427">
		</g>
	</g>
</g>
</svg>
